# This file uses centimeters as units for non-parametric coordinates.

mtllib Kirby.mtl
g default
v -0.366544 0.201454 0.148115
v -0.395750 0.221905 0.184730
v -0.434017 0.248699 0.208853
v -0.477599 0.279216 0.218121
v -0.522230 0.310466 0.211628
v -0.563540 0.339392 0.190009
v -0.597487 0.363162 0.155381
v -0.620747 0.379449 0.111133
v -0.631044 0.386659 0.061596
v -0.627369 0.384086 0.011620
v -0.610083 0.371982 -0.033904
v -0.580876 0.351531 -0.070519
v -0.542610 0.324737 -0.094642
v -0.499028 0.294220 -0.103910
v -0.454397 0.262970 -0.097417
v -0.413087 0.234044 -0.075798
v -0.379140 0.210274 -0.041170
v -0.355880 0.193987 0.003078
v -0.345583 0.186777 0.052615
v -0.349258 0.189350 0.102591
v -0.488313 0.286718 0.057106
v -0.897436 -0.065210 0.155381
v -0.863490 -0.088979 0.190009
v -0.822179 -0.117906 0.211628
v -0.777548 -0.149156 0.218121
v -0.733967 -0.179672 0.208853
v -0.695700 -0.206467 0.184730
v -0.666494 -0.226918 0.148115
v -0.649207 -0.239022 0.102591
v -0.645532 -0.241595 0.052615
v -0.655829 -0.234385 0.003079
v -0.679089 -0.218098 -0.041170
v -0.713036 -0.194328 -0.075798
v -0.754346 -0.165402 -0.097417
v -0.798977 -0.134152 -0.103910
v -0.842558 -0.103636 -0.094641
v -0.880826 -0.076841 -0.070519
v -0.910032 -0.056390 -0.033904
v -0.927318 -0.044286 0.011620
v -0.930993 -0.041713 0.061596
v -0.920696 -0.048923 0.111133
v -0.759796 -0.298820 0.128204
v -0.780068 -0.300066 0.130138
v -0.770797 -0.306558 0.113433
v -0.782424 -0.282975 0.157531
v -0.802676 -0.284236 0.154555
v -0.789430 -0.293511 0.142272
v -0.811923 -0.262320 0.177030
v -0.830805 -0.264540 0.169439
v -0.814991 -0.275613 0.162696
v -0.845404 -0.238876 0.184793
v -0.861733 -0.242884 0.173404
v -0.844910 -0.254663 0.172709
v -0.879590 -0.214939 0.180058
v -0.892503 -0.221338 0.166070
v -0.876216 -0.232743 0.171398
v -0.911135 -0.192850 0.163291
v -0.920152 -0.201978 0.148097
v -0.905868 -0.211981 0.158967
v -0.936952 -0.174774 0.136132
v -0.941961 -0.186708 0.121163
v -0.931028 -0.194363 0.136655
v -0.954511 -0.162478 0.101240
v -0.955733 -0.177065 0.087873
v -0.949292 -0.181574 0.106596
v -0.962097 -0.157167 0.062030
v -0.960058 -0.174036 0.051525
v -0.958871 -0.174867 0.071651
v -0.958964 -0.159360 0.022340
v -0.954503 -0.177926 0.015755
v -0.958769 -0.174938 0.035195
v -0.945421 -0.168843 -0.013944
v -0.939659 -0.188319 -0.015878
v -0.948930 -0.181828 0.000827
v -0.922793 -0.184688 -0.043271
v -0.917051 -0.204150 -0.040295
v -0.930297 -0.194875 -0.028012
v -0.893294 -0.205343 -0.062770
v -0.888923 -0.223846 -0.055179
v -0.904736 -0.212773 -0.048436
v -0.859813 -0.228787 -0.070533
v -0.857994 -0.245502 -0.059144
v -0.874817 -0.233722 -0.058449
v -0.825627 -0.252724 -0.065799
v -0.827224 -0.267047 -0.051810
v -0.843511 -0.255643 -0.057138
v -0.794082 -0.274812 -0.049031
v -0.799575 -0.286407 -0.033837
v -0.813860 -0.276405 -0.044707
v -0.768266 -0.292889 -0.021873
v -0.777766 -0.301678 -0.006903
v -0.788699 -0.294023 -0.022395
v -0.750705 -0.305185 0.013020
v -0.763994 -0.311321 0.026387
v -0.770435 -0.306811 0.007664
v -0.743120 -0.310496 0.052230
v -0.759669 -0.314350 0.062735
v -0.760856 -0.313519 0.042609
v -0.746253 -0.308303 0.091920
v -0.765225 -0.310460 0.098505
v -0.760958 -0.313447 0.079065
v -0.804716 -0.282808 0.064751
v -0.808983 -0.279820 0.084191
v -0.818467 -0.273179 0.100732
v -0.831977 -0.263719 0.112638
v -0.847945 -0.252538 0.118925
v -0.864785 -0.240747 0.119317
v -0.881072 -0.229343 0.113990
v -0.895495 -0.219244 0.103371
v -0.906749 -0.211364 0.088180
v -0.913572 -0.206586 0.069623
v -0.915011 -0.205578 0.049509
v -0.910744 -0.208566 0.030069
v -0.901260 -0.215207 0.013527
v -0.887750 -0.224667 0.001622
v -0.871782 -0.235847 -0.004665
v -0.854942 -0.247639 -0.005057
v -0.838655 -0.259043 0.000270
v -0.824232 -0.269142 0.010889
v -0.812979 -0.277022 0.026080
v -0.806155 -0.281800 0.044637
vt 0.648603 0.107966
vt 0.626409 0.064408
vt 0.591842 0.029841
vt 0.548284 0.007647
vt 0.500000 -0.000000
vt 0.451716 0.007647
vt 0.408159 0.029841
vt 0.373591 0.064409
vt 0.351397 0.107966
vt 0.343750 0.156250
vt 0.351397 0.204534
vt 0.373591 0.248091
vt 0.408159 0.282659
vt 0.451716 0.304853
vt 0.500000 0.312500
vt 0.548284 0.304853
vt 0.591841 0.282659
vt 0.626409 0.248091
vt 0.648603 0.204534
vt 0.656250 0.156250
vt 0.375000 0.312500
vt 0.387500 0.312500
vt 0.400000 0.312500
vt 0.412500 0.312500
vt 0.425000 0.312500
vt 0.437500 0.312500
vt 0.450000 0.312500
vt 0.462500 0.312500
vt 0.475000 0.312500
vt 0.487500 0.312500
vt 0.500000 0.312500
vt 0.512500 0.312500
vt 0.525000 0.312500
vt 0.537500 0.312500
vt 0.550000 0.312500
vt 0.562500 0.312500
vt 0.575000 0.312500
vt 0.587500 0.312500
vt 0.600000 0.312500
vt 0.612500 0.312500
vt 0.625000 0.312500
vt 0.500000 0.150000
vt 0.437500 0.615885
vt 0.425000 0.615885
vt 0.412500 0.615885
vt 0.400000 0.615885
vt 0.387500 0.615885
vt 0.625000 0.615885
vt 0.375000 0.615885
vt 0.612500 0.615885
vt 0.600000 0.615885
vt 0.587500 0.615885
vt 0.575000 0.615885
vt 0.562500 0.615885
vt 0.550000 0.615885
vt 0.537500 0.615885
vt 0.525000 0.615885
vt 0.512500 0.615885
vt 0.500000 0.615885
vt 0.487500 0.615885
vt 0.475000 0.615885
vt 0.462500 0.615885
vt 0.625000 0.681102
vt 0.387500 0.681102
vt 0.375000 0.681102
vt 0.400000 0.681102
vt 0.412500 0.681102
vt 0.425000 0.681102
vt 0.437500 0.681102
vt 0.450000 0.681102
vt 0.450000 0.615885
vt 0.462500 0.681102
vt 0.475000 0.681102
vt 0.487500 0.681102
vt 0.500000 0.681102
vt 0.512500 0.681102
vt 0.525000 0.681102
vt 0.537500 0.681102
vt 0.550000 0.681102
vt 0.562500 0.681102
vt 0.575000 0.681102
vt 0.587500 0.681102
vt 0.600000 0.681102
vt 0.612500 0.681102
vt 0.648603 0.892034
vt 0.622160 0.916911
vt 0.593267 0.951043
vt 0.555270 0.974519
vt 0.511964 0.985106
vt 0.467580 0.981866
vt 0.426379 0.965169
vt 0.392301 0.936611
vt 0.368658 0.898889
vt 0.357829 0.855620
vt 0.360976 0.811045
vt 0.377840 0.769614
vt 0.406733 0.735472
vt 0.444730 0.711986
vt 0.488036 0.701394
vt 0.532420 0.704634
vt 0.573621 0.721336
vt 0.607699 0.749904
vt 0.656250 0.843750
vt 0.631342 0.787635
vt 0.642170 0.830911
vt 0.577885 0.853048
vt 0.631342 0.898890
vt 0.639024 0.875485
vt 0.626409 0.935591
vt 0.607699 0.936611
vt 0.591842 0.970159
vt 0.573621 0.965169
vt 0.548284 0.992353
vt 0.532420 0.981866
vt 0.500000 1.000000
vt 0.488036 0.985106
vt 0.451716 0.992352
vt 0.444730 0.974519
vt 0.408159 0.970159
vt 0.406733 0.951043
vt 0.373591 0.935592
vt 0.377840 0.916911
vt 0.351397 0.892034
vt 0.360976 0.875485
vt 0.343750 0.843750
vt 0.357829 0.830911
vt 0.351397 0.795466
vt 0.368658 0.787635
vt 0.373591 0.751909
vt 0.392301 0.749904
vt 0.408159 0.717341
vt 0.426379 0.721336
vt 0.451716 0.695147
vt 0.467580 0.704634
vt 0.500000 0.687500
vt 0.511964 0.701394
vt 0.548284 0.695147
vt 0.555270 0.711986
vt 0.591841 0.717341
vt 0.593267 0.735472
vt 0.626409 0.751908
vt 0.622160 0.769614
vt 0.648603 0.795466
vt 0.639024 0.811045
vt 0.642171 0.855620
vt 0.577885 0.828339
vt 0.569860 0.876327
vt 0.554924 0.895659
vt 0.534928 0.909280
vt 0.511964 0.916260
vt 0.488036 0.916260
vt 0.465072 0.909281
vt 0.445076 0.895659
vt 0.430140 0.876327
vt 0.422116 0.853048
vt 0.422115 0.828339
vt 0.430140 0.805026
vt 0.445076 0.785638
vt 0.465072 0.771959
vt 0.488036 0.764944
vt 0.511964 0.764944
vt 0.534928 0.771959
vt 0.554924 0.785638
vt 0.569861 0.805026
vn 0.673917 -0.471882 0.568474
vn 0.486149 -0.340406 0.804850
vn 0.638073 -0.520105 0.567762
vn 0.452658 -0.386495 0.803569
vn 0.259628 -0.181794 0.948443
vn 0.228749 -0.225095 0.947104
vn 0.021103 -0.014777 0.999668
vn -0.007899 -0.055704 0.998416
vn -0.212012 0.148453 0.965926
vn -0.239218 0.109124 0.964814
vn -0.427716 0.299490 0.852857
vn -0.455882 0.257813 0.851883
vn -0.613305 0.429440 0.662901
vn -0.643100 0.385062 0.661929
vn -0.750664 0.525620 0.400283
vn -0.782311 0.477790 0.399634
vn -0.816463 0.571693 0.080965
vn -0.849646 0.521068 0.081179
vn -0.791240 0.554032 -0.258821
vn -0.825838 0.501270 -0.258300
vn -0.673915 0.471881 -0.568478
vn -0.707210 0.421355 -0.567727
vn -0.486149 0.340406 -0.804850
vn -0.518211 0.292906 -0.803532
vn -0.259629 0.181794 -0.948443
vn -0.289914 0.137812 -0.947079
vn -0.021103 0.014777 -0.999668
vn -0.049731 -0.026514 -0.998411
vn 0.212012 -0.148452 -0.965926
vn 0.184352 -0.187398 -0.964830
vn 0.427716 -0.299490 -0.852857
vn 0.398263 -0.340040 -0.851915
vn 0.613304 -0.429440 -0.662902
vn 0.581956 -0.472359 -0.661970
vn 0.750665 -0.525621 -0.400282
vn 0.716781 -0.571395 -0.399666
vn 0.816463 -0.571693 -0.080965
vn 0.780526 -0.619829 -0.081190
vn 0.791240 -0.554032 0.258819
vn 0.753791 -0.604213 0.258314
vn 0.573576 0.819152 0.000000
vn 0.573576 0.819152 0.000000
vn 0.573577 0.819152 0.000000
vn 0.573576 0.819152 0.000000
vn 0.573577 0.819151 -0.000000
vn 0.573577 0.819152 -0.000001
vn 0.573575 0.819153 -0.000002
vn 0.573576 0.819152 0.000000
vn 0.573578 0.819151 0.000003
vn 0.573578 0.819151 0.000001
vn 0.573578 0.819151 -0.000002
vn 0.573577 0.819152 -0.000001
vn 0.573576 0.819152 0.000000
vn 0.573575 0.819153 0.000001
vn 0.573576 0.819152 0.000001
vn 0.573577 0.819151 0.000001
vn 0.573576 0.819152 0.000000
vn 0.573576 0.819152 0.000000
vn 0.573577 0.819152 0.000001
vn 0.573576 0.819152 -0.000000
vn 0.573576 0.819152 -0.000000
vn -0.772268 0.138810 0.619947
vn -0.589065 0.027443 0.807620
vn -0.381772 -0.117164 0.916800
vn -0.157634 -0.273856 0.948765
vn 0.063479 -0.444856 0.893350
vn 0.263032 -0.606713 0.750142
vn 0.421957 -0.737564 0.527211
vn 0.526907 -0.815068 0.240901
vn 0.553603 -0.829640 -0.072264
vn 0.508559 -0.778442 -0.367962
vn 0.395822 -0.677304 -0.620149
vn 0.228062 -0.543617 -0.807755
vn 0.020839 -0.398761 -0.916818
vn -0.203449 -0.242262 -0.948640
vn -0.440068 -0.093536 -0.893080
vn -0.660593 0.038084 -0.749778
vn -0.837966 0.142239 -0.526860
vn -0.946694 0.214077 -0.240709
vn -0.969493 0.234232 0.072240
vn -0.905957 0.209698 0.367790
vn -0.376755 -0.902204 0.209960
vn -0.573577 -0.819152 0.000000
vn -0.440580 -0.888902 0.125467
vn -0.573576 -0.819153 -0.000001
vn -0.414967 -0.907135 0.070055
vn -0.331672 -0.934253 0.131017
vn -0.438218 -0.858510 0.266319
vn -0.573573 -0.819154 0.000001
vn -0.477983 -0.862144 0.168050
vn -0.509011 -0.808406 0.295614
vn -0.573576 -0.819152 0.000000
vn -0.523261 -0.829820 0.193899
vn -0.582251 -0.756911 0.296766
vn -0.573578 -0.819151 -0.000001
vn -0.572023 -0.795220 0.201033
vn -0.635321 -0.750898 0.180329
vn -0.573575 -0.819153 0.000003
vn -0.638370 -0.717615 0.278409
vn -0.675034 -0.723547 0.144255
vn -0.573576 -0.819152 -0.000000
vn -0.701511 -0.673615 0.232647
vn -0.704200 -0.703745 0.094054
vn -0.573578 -0.819151 -0.000002
vn -0.751287 -0.639298 0.163910
vn -0.719650 -0.693495 0.034186
vn -0.573577 -0.819152 0.000000
vn -0.782009 -0.618443 0.077396
vn -0.719398 -0.693971 -0.029524
vn -0.573576 -0.819152 0.000000
vn -0.789143 -0.613928 -0.018621
vn -0.764470 -0.631206 -0.131016
vn -0.573576 -0.819152 0.000002
vn -0.710504 -0.700197 -0.070057
vn -0.718940 -0.662603 -0.209957
vn -0.573577 -0.819152 0.000002
vn -0.684608 -0.718032 -0.125468
vn -0.656851 -0.705420 -0.266327
vn -0.573576 -0.819152 -0.000001
vn -0.646668 -0.744029 -0.168052
vn -0.585564 -0.754802 -0.295616
vn -0.573575 -0.819153 -0.000002
vn -0.600815 -0.775515 -0.193900
vn -0.512124 -0.806013 -0.296769
vn -0.573575 -0.819153 -0.000000
vn -0.551620 -0.809507 -0.201031
vn -0.488318 -0.853832 -0.180325
vn -0.573577 -0.819151 -0.000001
vn -0.456000 -0.845312 -0.278410
vn -0.449034 -0.881793 -0.144255
vn -0.573579 -0.819150 0.000002
vn -0.393061 -0.889595 -0.232646
vn -0.420455 -0.902425 -0.094057
vn -0.573576 -0.819152 -0.000000
vn -0.343786 -0.924631 -0.163914
vn -0.405537 -0.913439 -0.034181
vn -0.573577 -0.819152 0.000001
vn -0.313682 -0.946368 -0.077400
vn -0.406074 -0.913363 0.029526
vn -0.573577 -0.819152 0.000002
vn -0.307002 -0.951527 0.018626
s 1
g pCylinder5
usemtl lambert5SG
f 1/21/1 2/22/2 28/49/3
f 28/49/3 2/22/2 27/47/4
f 2/22/2 3/23/5 27/47/4
f 27/47/4 3/23/5 26/46/6
f 3/23/5 4/24/7 26/46/6
f 26/46/6 4/24/7 25/45/8
f 4/24/7 5/25/9 25/45/8
f 25/45/8 5/25/9 24/44/10
f 5/25/9 6/26/11 24/44/10
f 24/44/10 6/26/11 23/43/12
f 6/26/11 7/27/13 23/43/12
f 23/43/12 7/27/13 22/71/14
f 7/27/13 8/28/15 22/71/14
f 22/71/14 8/28/15 41/62/16
f 8/28/15 9/29/17 41/62/16
f 41/62/16 9/29/17 40/61/18
f 9/29/17 10/30/19 40/61/18
f 40/61/18 10/30/19 39/60/20
f 10/30/19 11/31/21 39/60/20
f 39/60/20 11/31/21 38/59/22
f 11/31/21 12/32/23 38/59/22
f 38/59/22 12/32/23 37/58/24
f 12/32/23 13/33/25 37/58/24
f 37/58/24 13/33/25 36/57/26
f 13/33/25 14/34/27 36/57/26
f 36/57/26 14/34/27 35/56/28
f 14/34/27 15/35/29 35/56/28
f 35/56/28 15/35/29 34/55/30
f 15/35/29 16/36/31 34/55/30
f 34/55/30 16/36/31 33/54/32
f 16/36/31 17/37/33 33/54/32
f 33/54/32 17/37/33 32/53/34
f 17/37/33 18/38/35 32/53/34
f 32/53/34 18/38/35 31/52/36
f 18/38/35 19/39/37 31/52/36
f 31/52/36 19/39/37 30/51/38
f 19/39/37 20/40/39 30/51/38
f 30/51/38 20/40/39 29/50/40
f 20/40/39 1/41/1 29/50/40
f 29/50/40 1/41/1 28/48/3
s 2
f 2/2/41 1/1/42 21/42/43
f 3/3/44 2/2/41 21/42/43
f 4/4/45 3/3/44 21/42/43
f 5/5/46 4/4/45 21/42/43
f 6/6/47 5/5/46 21/42/43
f 7/7/48 6/6/47 21/42/43
f 8/8/49 7/7/48 21/42/43
f 9/9/50 8/8/49 21/42/43
f 10/10/51 9/9/50 21/42/43
f 11/11/52 10/10/51 21/42/43
f 12/12/53 11/11/52 21/42/43
f 13/13/54 12/12/53 21/42/43
f 14/14/55 13/13/54 21/42/43
f 15/15/56 14/14/55 21/42/43
f 16/16/57 15/15/56 21/42/43
f 17/17/58 16/16/57 21/42/43
f 18/18/59 17/17/58 21/42/43
f 19/19/60 18/18/59 21/42/43
f 20/20/61 19/19/60 21/42/43
f 1/1/42 20/20/61 21/42/43
s 1
f 22/71/14 60/70/62 23/43/12
f 23/43/12 60/70/62 57/69/63
f 23/43/12 57/69/63 24/44/10
f 24/44/10 57/69/63 54/68/64
f 25/45/8 24/44/10 51/67/65
f 51/67/65 24/44/10 54/68/64
f 26/46/6 25/45/8 48/66/66
f 48/66/66 25/45/8 51/67/65
f 27/47/4 26/46/6 45/64/67
f 45/64/67 26/46/6 48/66/66
f 28/49/3 27/47/4 42/65/68
f 42/65/68 27/47/4 45/64/67
f 29/50/40 28/48/3 99/84/69
f 99/84/69 28/48/3 42/63/68
f 29/50/40 99/84/69 30/51/38
f 30/51/38 99/84/69 96/83/70
f 30/51/38 96/83/70 31/52/36
f 31/52/36 96/83/70 93/82/71
f 31/52/36 93/82/71 32/53/34
f 32/53/34 93/82/71 90/81/72
f 32/53/34 90/81/72 33/54/32
f 33/54/32 90/81/72 87/80/73
f 33/54/32 87/80/73 34/55/30
f 34/55/30 87/80/73 84/79/74
f 35/56/28 34/55/30 81/78/75
f 81/78/75 34/55/30 84/79/74
f 36/57/26 35/56/28 78/77/76
f 78/77/76 35/56/28 81/78/75
f 37/58/24 36/57/26 75/76/77
f 75/76/77 36/57/26 78/77/76
f 38/59/22 37/58/24 72/75/78
f 72/75/78 37/58/24 75/76/77
f 39/60/20 38/59/22 69/74/79
f 69/74/79 38/59/22 72/75/78
f 39/60/20 69/74/79 40/61/18
f 40/61/18 69/74/79 66/73/80
f 40/61/18 66/73/80 41/62/16
f 41/62/16 66/73/80 63/72/81
f 41/62/16 63/72/81 22/71/14
f 22/71/14 63/72/81 60/70/62
f 47/86/82 104/147/83 43/107/84
f 103/106/85 100/145/86 44/108/87
f 50/87/88 105/148/89 46/110/90
f 53/88/91 106/149/92 49/112/93
f 56/89/94 107/150/95 52/114/96
f 59/90/97 108/151/98 55/116/99
f 62/91/100 109/152/101 58/118/102
f 65/92/103 110/153/104 61/120/105
f 68/93/106 111/154/107 64/122/108
f 71/94/109 112/155/110 67/124/111
f 74/95/112 113/156/113 70/126/114
f 77/96/115 114/157/116 73/128/117
f 80/97/118 115/158/119 76/130/120
f 83/98/121 116/159/122 79/132/123
f 86/99/124 117/160/125 82/134/126
f 89/100/127 118/161/128 85/136/129
f 92/101/130 119/162/131 88/138/132
f 95/102/133 120/163/134 91/140/135
f 98/104/136 121/164/137 94/142/138
f 101/105/139 102/146/140 97/144/141
f 43/107/84 42/85/68 47/86/82
f 47/86/82 42/85/68 45/109/67
f 43/107/84 104/147/83 44/108/87
f 44/108/87 104/147/83 103/106/85
f 42/85/68 44/108/87 99/103/69
f 99/103/69 44/108/87 100/145/86
f 46/110/90 45/109/67 50/87/88
f 50/87/88 45/109/67 48/111/66
f 46/110/90 105/148/89 47/86/82
f 47/86/82 105/148/89 104/147/83
f 49/112/93 48/111/66 53/88/91
f 53/88/91 48/111/66 51/113/65
f 49/112/93 106/149/92 50/87/88
f 50/87/88 106/149/92 105/148/89
f 52/114/96 51/113/65 56/89/94
f 56/89/94 51/113/65 54/115/64
f 52/114/96 107/150/95 53/88/91
f 53/88/91 107/150/95 106/149/92
f 54/115/64 57/117/63 55/116/99
f 55/116/99 57/117/63 59/90/97
f 56/89/94 55/116/99 107/150/95
f 107/150/95 55/116/99 108/151/98
f 57/117/63 60/119/62 58/118/102
f 58/118/102 60/119/62 62/91/100
f 59/90/97 58/118/102 108/151/98
f 108/151/98 58/118/102 109/152/101
f 60/119/62 63/121/81 61/120/105
f 61/120/105 63/121/81 65/92/103
f 62/91/100 61/120/105 109/152/101
f 109/152/101 61/120/105 110/153/104
f 63/121/81 66/123/80 64/122/108
f 64/122/108 66/123/80 68/93/106
f 65/92/103 64/122/108 110/153/104
f 110/153/104 64/122/108 111/154/107
f 66/123/80 69/125/79 67/124/111
f 67/124/111 69/125/79 71/94/109
f 68/93/106 67/124/111 111/154/107
f 111/154/107 67/124/111 112/155/110
f 70/126/114 69/125/79 74/95/112
f 74/95/112 69/125/79 72/127/78
f 71/94/109 70/126/114 112/155/110
f 112/155/110 70/126/114 113/156/113
f 73/128/117 72/127/78 77/96/115
f 77/96/115 72/127/78 75/129/77
f 73/128/117 114/157/116 74/95/112
f 74/95/112 114/157/116 113/156/113
f 76/130/120 75/129/77 80/97/118
f 80/97/118 75/129/77 78/131/76
f 76/130/120 115/158/119 77/96/115
f 77/96/115 115/158/119 114/157/116
f 79/132/123 78/131/76 83/98/121
f 83/98/121 78/131/76 81/133/75
f 79/132/123 116/159/122 80/97/118
f 80/97/118 116/159/122 115/158/119
f 82/134/126 81/133/75 86/99/124
f 86/99/124 81/133/75 84/135/74
f 82/134/126 117/160/125 83/98/121
f 83/98/121 117/160/125 116/159/122
f 84/135/74 87/137/73 85/136/129
f 85/136/129 87/137/73 89/100/127
f 86/99/124 85/136/129 117/160/125
f 117/160/125 85/136/129 118/161/128
f 87/137/73 90/139/72 88/138/132
f 88/138/132 90/139/72 92/101/130
f 89/100/127 88/138/132 118/161/128
f 118/161/128 88/138/132 119/162/131
f 90/139/72 93/141/71 91/140/135
f 91/140/135 93/141/71 95/102/133
f 92/101/130 91/140/135 119/162/131
f 119/162/131 91/140/135 120/163/134
f 93/141/71 96/143/70 94/142/138
f 94/142/138 96/143/70 98/104/136
f 95/102/133 94/142/138 120/163/134
f 120/163/134 94/142/138 121/164/137
f 96/143/70 99/103/69 97/144/141
f 97/144/141 99/103/69 101/105/139
f 98/104/136 97/144/141 121/164/137
f 121/164/137 97/144/141 102/146/140
f 101/105/139 100/145/86 102/146/140
f 102/146/140 100/145/86 103/106/85
f 42/85/68 43/107/84 44/108/87
f 45/109/67 46/110/90 47/86/82
f 48/111/66 49/112/93 50/87/88
f 51/113/65 52/114/96 53/88/91
f 54/115/64 55/116/99 56/89/94
f 57/117/63 58/118/102 59/90/97
f 60/119/62 61/120/105 62/91/100
f 63/121/81 64/122/108 65/92/103
f 66/123/80 67/124/111 68/93/106
f 69/125/79 70/126/114 71/94/109
f 72/127/78 73/128/117 74/95/112
f 75/129/77 76/130/120 77/96/115
f 78/131/76 79/132/123 80/97/118
f 81/133/75 82/134/126 83/98/121
f 84/135/74 85/136/129 86/99/124
f 87/137/73 88/138/132 89/100/127
f 90/139/72 91/140/135 92/101/130
f 93/141/71 94/142/138 95/102/133
f 96/143/70 97/144/141 98/104/136
f 99/103/69 100/145/86 101/105/139
f 102/146/140 103/106/85 121/164/137
f 103/106/85 104/147/83 121/164/137
f 104/147/83 105/148/89 121/164/137
f 105/148/89 106/149/92 121/164/137
f 106/149/92 107/150/95 121/164/137
f 107/150/95 108/151/98 121/164/137
f 108/151/98 109/152/101 121/164/137
f 109/152/101 110/153/104 121/164/137
f 110/153/104 111/154/107 121/164/137
f 111/154/107 112/155/110 121/164/137
f 112/155/110 113/156/113 121/164/137
f 113/156/113 114/157/116 121/164/137
f 114/157/116 115/158/119 121/164/137
f 115/158/119 116/159/122 121/164/137
f 121/164/137 116/159/122 120/163/134
f 116/159/122 117/160/125 120/163/134
f 117/160/125 118/161/128 120/163/134
f 118/161/128 119/162/131 120/163/134
