# This file uses centimeters as units for non-parametric coordinates.

mtllib Kirby.mtl
g default
v 0.518469 0.382349 0.148132
v 0.489255 0.361893 0.184744
v 0.450976 0.335090 0.208863
v 0.407380 0.304564 0.218126
v 0.362733 0.273302 0.211628
v 0.321406 0.244364 0.190004
v 0.287445 0.220584 0.155371
v 0.264173 0.204289 0.111119
v 0.253868 0.197074 0.061579
v 0.257541 0.199645 0.011602
v 0.274830 0.211751 -0.033920
v 0.304044 0.232207 -0.070533
v 0.342322 0.259010 -0.094652
v 0.385919 0.289536 -0.103915
v 0.430565 0.320798 -0.097417
v 0.471892 0.349736 -0.075793
v 0.505854 0.373516 -0.041159
v 0.529126 0.389811 0.003092
v 0.539430 0.397026 0.052632
v 0.535758 0.394455 0.102609
v 0.396649 0.297050 0.057106
v 0.587394 -0.207788 0.155371
v 0.621355 -0.184008 0.190004
v 0.662682 -0.155070 0.211628
v 0.707329 -0.123808 0.218126
v 0.750925 -0.093282 0.208863
v 0.789204 -0.066479 0.184744
v 0.818418 -0.046023 0.148132
v 0.835707 -0.033917 0.102609
v 0.839379 -0.031346 0.052632
v 0.829075 -0.038561 0.003092
v 0.805803 -0.054856 -0.041160
v 0.771842 -0.078636 -0.075793
v 0.730515 -0.107573 -0.097417
v 0.685868 -0.138835 -0.103915
v 0.642272 -0.169362 -0.094652
v 0.603993 -0.196165 -0.070533
v 0.574779 -0.216621 -0.033921
v 0.557490 -0.228727 0.011602
v 0.553818 -0.231298 0.061580
v 0.564122 -0.224083 0.111119
v 0.854060 -0.158299 0.128216
v 0.848294 -0.177778 0.130149
v 0.857567 -0.171285 0.113445
v 0.831426 -0.174147 0.157542
v 0.825680 -0.193612 0.154564
v 0.838930 -0.184335 0.142282
v 0.801919 -0.194809 0.177038
v 0.797543 -0.213314 0.169445
v 0.813361 -0.202238 0.162703
v 0.768427 -0.218260 0.184797
v 0.766604 -0.234978 0.173406
v 0.783432 -0.223194 0.172714
v 0.734228 -0.242206 0.180059
v 0.735822 -0.256531 0.166069
v 0.752115 -0.245123 0.171399
v 0.702670 -0.264303 0.163287
v 0.708162 -0.275899 0.148092
v 0.722452 -0.265893 0.158964
v 0.676843 -0.282388 0.136125
v 0.686343 -0.291177 0.121155
v 0.697281 -0.283518 0.136649
v 0.659274 -0.294690 0.101230
v 0.672564 -0.300825 0.087863
v 0.679008 -0.296313 0.106587
v 0.651683 -0.300005 0.062018
v 0.668234 -0.303857 0.051513
v 0.669423 -0.303024 0.071640
v 0.654813 -0.297813 0.022327
v 0.673789 -0.299968 0.015743
v 0.669522 -0.302955 0.035183
v 0.668359 -0.288329 -0.013956
v 0.688635 -0.289572 -0.015889
v 0.679362 -0.296065 0.000815
v 0.690993 -0.272480 -0.043282
v 0.711249 -0.273738 -0.040304
v 0.697999 -0.283015 -0.028022
v 0.720500 -0.251819 -0.062778
v 0.739387 -0.254036 -0.055185
v 0.723568 -0.265112 -0.048444
v 0.753992 -0.228367 -0.070537
v 0.770325 -0.232372 -0.059146
v 0.753497 -0.244156 -0.058454
v 0.788191 -0.204421 -0.065799
v 0.801107 -0.210818 -0.051809
v 0.784814 -0.222227 -0.057139
v 0.819749 -0.182324 -0.049027
v 0.828767 -0.191451 -0.033832
v 0.814477 -0.201457 -0.044704
v 0.845576 -0.164239 -0.021865
v 0.850586 -0.176173 -0.006895
v 0.839649 -0.183832 -0.022389
v 0.863145 -0.151937 0.013030
v 0.864366 -0.166525 0.026397
v 0.857921 -0.171037 0.007673
v 0.870736 -0.146622 0.052242
v 0.868695 -0.163493 0.062747
v 0.867506 -0.164326 0.042620
v 0.867606 -0.148814 0.091933
v 0.863140 -0.167383 0.098517
v 0.867407 -0.164395 0.079077
v 0.823632 -0.195046 0.064758
v 0.819366 -0.198034 0.084198
v 0.809879 -0.204677 0.100738
v 0.796365 -0.214139 0.112643
v 0.780392 -0.225323 0.118928
v 0.763546 -0.237119 0.119318
v 0.747253 -0.248527 0.113989
v 0.732824 -0.258631 0.103368
v 0.721565 -0.266514 0.088175
v 0.714738 -0.271295 0.069617
v 0.713297 -0.272304 0.049502
v 0.717564 -0.269316 0.030062
v 0.727051 -0.262673 0.013522
v 0.740564 -0.253211 0.001617
v 0.756537 -0.242027 -0.004668
v 0.773383 -0.230231 -0.005058
v 0.789676 -0.218823 0.000271
v 0.804105 -0.208719 0.010892
v 0.815364 -0.200836 0.026085
v 0.822191 -0.196055 0.044643
vt 0.648603 0.107966
vt 0.626409 0.064408
vt 0.591842 0.029841
vt 0.548284 0.007647
vt 0.500000 -0.000000
vt 0.451716 0.007647
vt 0.408159 0.029841
vt 0.373591 0.064409
vt 0.351397 0.107966
vt 0.343750 0.156250
vt 0.351397 0.204534
vt 0.373591 0.248091
vt 0.408159 0.282659
vt 0.451716 0.304853
vt 0.500000 0.312500
vt 0.548284 0.304853
vt 0.591841 0.282659
vt 0.626409 0.248091
vt 0.648603 0.204534
vt 0.656250 0.156250
vt 0.375000 0.312500
vt 0.387500 0.312500
vt 0.400000 0.312500
vt 0.412500 0.312500
vt 0.425000 0.312500
vt 0.437500 0.312500
vt 0.450000 0.312500
vt 0.462500 0.312500
vt 0.475000 0.312500
vt 0.487500 0.312500
vt 0.500000 0.312500
vt 0.512500 0.312500
vt 0.525000 0.312500
vt 0.537500 0.312500
vt 0.550000 0.312500
vt 0.562500 0.312500
vt 0.575000 0.312500
vt 0.587500 0.312500
vt 0.600000 0.312500
vt 0.612500 0.312500
vt 0.625000 0.312500
vt 0.500000 0.150000
vt 0.437500 0.615885
vt 0.425000 0.615885
vt 0.412500 0.615885
vt 0.400000 0.615885
vt 0.387500 0.615885
vt 0.625000 0.615885
vt 0.375000 0.615885
vt 0.612500 0.615885
vt 0.600000 0.615885
vt 0.587500 0.615885
vt 0.575000 0.615885
vt 0.562500 0.615885
vt 0.550000 0.615885
vt 0.537500 0.615885
vt 0.525000 0.615885
vt 0.512500 0.615885
vt 0.500000 0.615885
vt 0.487500 0.615885
vt 0.475000 0.615885
vt 0.462500 0.615885
vt 0.625000 0.681102
vt 0.387500 0.681102
vt 0.375000 0.681102
vt 0.400000 0.681102
vt 0.412500 0.681102
vt 0.425000 0.681102
vt 0.437500 0.681102
vt 0.450000 0.681102
vt 0.450000 0.615885
vt 0.462500 0.681102
vt 0.475000 0.681102
vt 0.487500 0.681102
vt 0.500000 0.681102
vt 0.512500 0.681102
vt 0.525000 0.681102
vt 0.537500 0.681102
vt 0.550000 0.681102
vt 0.562500 0.681102
vt 0.575000 0.681102
vt 0.587500 0.681102
vt 0.600000 0.681102
vt 0.612500 0.681102
vt 0.648603 0.892034
vt 0.622160 0.916911
vt 0.593267 0.951043
vt 0.555270 0.974519
vt 0.511964 0.985106
vt 0.467580 0.981866
vt 0.426379 0.965169
vt 0.392301 0.936611
vt 0.368658 0.898889
vt 0.357829 0.855620
vt 0.360976 0.811045
vt 0.377840 0.769614
vt 0.406733 0.735472
vt 0.444730 0.711986
vt 0.488036 0.701394
vt 0.532420 0.704634
vt 0.573621 0.721336
vt 0.607699 0.749904
vt 0.656250 0.843750
vt 0.631342 0.787635
vt 0.642170 0.830911
vt 0.577885 0.853048
vt 0.631342 0.898890
vt 0.639024 0.875485
vt 0.626409 0.935591
vt 0.607699 0.936611
vt 0.591842 0.970159
vt 0.573621 0.965169
vt 0.548284 0.992353
vt 0.532420 0.981866
vt 0.500000 1.000000
vt 0.488036 0.985106
vt 0.451716 0.992352
vt 0.444730 0.974519
vt 0.408159 0.970159
vt 0.406733 0.951043
vt 0.373591 0.935592
vt 0.377840 0.916911
vt 0.351397 0.892034
vt 0.360976 0.875485
vt 0.343750 0.843750
vt 0.357829 0.830911
vt 0.351397 0.795466
vt 0.368658 0.787635
vt 0.373591 0.751909
vt 0.392301 0.749904
vt 0.408159 0.717341
vt 0.426379 0.721336
vt 0.451716 0.695147
vt 0.467580 0.704634
vt 0.500000 0.687500
vt 0.511964 0.701394
vt 0.548284 0.695147
vt 0.555270 0.711986
vt 0.591841 0.717341
vt 0.593267 0.735472
vt 0.626409 0.751908
vt 0.622160 0.769614
vt 0.648603 0.795466
vt 0.639024 0.811045
vt 0.642171 0.855620
vt 0.577885 0.828339
vt 0.569860 0.876327
vt 0.554924 0.895659
vt 0.534928 0.909280
vt 0.511964 0.916260
vt 0.488036 0.916260
vt 0.465072 0.909281
vt 0.445076 0.895659
vt 0.430140 0.876327
vt 0.422116 0.853048
vt 0.422115 0.828339
vt 0.430140 0.805026
vt 0.445076 0.785638
vt 0.465072 0.771959
vt 0.488036 0.764944
vt 0.511964 0.764944
vt 0.534928 0.771959
vt 0.554924 0.785638
vt 0.569861 0.805026
vn 0.673861 0.471843 0.568573
vn 0.486028 0.340320 0.804959
vn 0.706927 0.421651 0.567860
vn 0.517890 0.293074 0.803678
vn 0.259493 0.181699 0.948498
vn 0.289625 0.137867 0.947159
vn 0.021019 0.014718 0.999671
vn 0.049560 -0.026535 0.998419
vn -0.212012 -0.148453 0.965926
vn -0.184361 -0.187468 0.964814
vn -0.427644 -0.299440 0.852911
vn -0.398113 -0.340162 0.851936
vn -0.613210 -0.429374 0.663032
vn -0.581694 -0.472556 0.662059
vn -0.750603 -0.525578 0.400452
vn -0.716473 -0.571686 0.399802
vn -0.816454 -0.571688 0.081085
vn -0.780219 -0.620201 0.081298
vn -0.791240 -0.554032 -0.258821
vn -0.753479 -0.604608 -0.258300
vn -0.673860 -0.471841 -0.568576
vn -0.637756 -0.520425 -0.567825
vn -0.486028 -0.340320 -0.804959
vn -0.452350 -0.386705 -0.803641
vn -0.259493 -0.181699 -0.948498
vn -0.228518 -0.225206 -0.947133
vn -0.021019 -0.014718 -0.999671
vn 0.007991 -0.055742 -0.998413
vn 0.212012 0.148452 -0.965926
vn 0.239149 0.109140 -0.964830
vn 0.427644 0.299440 -0.852911
vn 0.455676 0.257893 -0.851969
vn 0.613210 0.429374 -0.663032
vn 0.642821 0.385232 -0.662100
vn 0.750604 0.525579 -0.400451
vn 0.782036 0.478071 -0.399835
vn 0.816455 0.571688 -0.081085
vn 0.849406 0.521438 -0.081310
vn 0.791240 0.554032 0.258819
vn 0.825598 0.501658 0.258314
vn -0.573576 0.819152 -0.000000
vn -0.573576 0.819152 -0.000000
vn -0.573576 0.819152 0.000000
vn -0.573576 0.819152 -0.000000
vn -0.573575 0.819153 -0.000000
vn -0.573576 0.819153 -0.000001
vn -0.573578 0.819151 -0.000002
vn -0.573577 0.819152 0.000000
vn -0.573575 0.819153 0.000003
vn -0.573575 0.819153 0.000001
vn -0.573575 0.819153 -0.000002
vn -0.573576 0.819153 -0.000001
vn -0.573577 0.819152 0.000000
vn -0.573578 0.819151 0.000001
vn -0.573577 0.819152 0.000001
vn -0.573576 0.819153 0.000001
vn -0.573576 0.819152 0.000000
vn -0.573577 0.819152 0.000000
vn -0.573576 0.819152 0.000001
vn -0.573576 0.819152 -0.000000
vn -0.573576 0.819152 -0.000000
vn -0.394453 -0.678179 0.620064
vn -0.227184 -0.544112 0.807669
vn -0.020475 -0.398821 0.916800
vn 0.203350 -0.241855 0.948765
vn 0.439627 -0.092619 0.893392
vn 0.660001 0.039515 0.750225
vn 0.837383 0.144106 0.527279
vn 0.946158 0.216236 0.240889
vn 0.968970 0.236347 -0.072372
vn 0.905399 0.211536 -0.368110
vn 0.771759 0.140203 -0.620266
vn 0.588770 0.028323 -0.807804
vn 0.381840 -0.116802 -0.916818
vn 0.158154 -0.273989 -0.948640
vn -0.062465 -0.445456 -0.893122
vn -0.261556 -0.607699 -0.749860
vn -0.420121 -0.738813 -0.526928
vn -0.524848 -0.816456 -0.240696
vn -0.551591 -0.830972 0.072347
vn -0.506791 -0.779606 0.367938
vn 0.718878 -0.662676 0.209940
vn 0.573576 -0.819152 0.000000
vn 0.684563 -0.718078 0.125451
vn 0.573577 -0.819152 -0.000001
vn 0.710454 -0.700250 0.070037
vn 0.764409 -0.631284 0.130993
vn 0.656806 -0.705470 0.266304
vn 0.573580 -0.819150 0.000001
vn 0.646632 -0.744063 0.168038
vn 0.585528 -0.754835 0.295604
vn 0.573576 -0.819152 0.000000
vn 0.600784 -0.775542 0.193890
vn 0.512111 -0.806024 0.296762
vn 0.573575 -0.819153 -0.000001
vn 0.551607 -0.809516 0.201029
vn 0.488333 -0.853821 0.180333
vn 0.573578 -0.819151 0.000003
vn 0.456013 -0.845304 0.278413
vn 0.449067 -0.881775 0.144265
vn 0.573577 -0.819152 -0.000000
vn 0.393099 -0.889574 0.232660
vn 0.420499 -0.902403 0.094069
vn 0.573575 -0.819153 -0.000002
vn 0.343853 -0.924604 0.163932
vn 0.405594 -0.913413 0.034203
vn 0.573576 -0.819152 0.000000
vn 0.313768 -0.946338 0.077423
vn 0.406134 -0.913337 -0.029505
vn 0.573577 -0.819152 0.000000
vn 0.307097 -0.951497 -0.018593
vn 0.331773 -0.934221 -0.130992
vn 0.573577 -0.819152 0.000002
vn 0.415027 -0.907109 -0.070039
vn 0.376838 -0.902175 -0.209937
vn 0.573576 -0.819152 0.000002
vn 0.440637 -0.888876 -0.125452
vn 0.438287 -0.858477 -0.266312
vn 0.573577 -0.819152 -0.000001
vn 0.478032 -0.862119 -0.168039
vn 0.509047 -0.808386 -0.295606
vn 0.573578 -0.819151 -0.000002
vn 0.523286 -0.829806 -0.193891
vn 0.582259 -0.756905 -0.296765
vn 0.573578 -0.819151 -0.000000
vn 0.572035 -0.795213 -0.201028
vn 0.635313 -0.750905 -0.180329
vn 0.573575 -0.819153 -0.000001
vn 0.638362 -0.717621 -0.278414
vn 0.675009 -0.723568 -0.144265
vn 0.573574 -0.819154 0.000002
vn 0.701478 -0.673645 -0.232659
vn 0.704161 -0.703782 -0.094071
vn 0.573577 -0.819152 -0.000000
vn 0.751239 -0.639347 -0.163936
vn 0.719606 -0.693540 -0.034198
vn 0.573576 -0.819153 0.000001
vn 0.781952 -0.618511 -0.077427
vn 0.719348 -0.694023 0.029507
vn 0.573576 -0.819152 0.000002
vn 0.789080 -0.614009 0.018598
s 1
g pCylinder4
usemtl lambert5SG
f 1/21/1 2/22/2 28/49/3
f 28/49/3 2/22/2 27/47/4
f 2/22/2 3/23/5 27/47/4
f 27/47/4 3/23/5 26/46/6
f 3/23/5 4/24/7 26/46/6
f 26/46/6 4/24/7 25/45/8
f 4/24/7 5/25/9 25/45/8
f 25/45/8 5/25/9 24/44/10
f 5/25/9 6/26/11 24/44/10
f 24/44/10 6/26/11 23/43/12
f 6/26/11 7/27/13 23/43/12
f 23/43/12 7/27/13 22/71/14
f 7/27/13 8/28/15 22/71/14
f 22/71/14 8/28/15 41/62/16
f 8/28/15 9/29/17 41/62/16
f 41/62/16 9/29/17 40/61/18
f 9/29/17 10/30/19 40/61/18
f 40/61/18 10/30/19 39/60/20
f 10/30/19 11/31/21 39/60/20
f 39/60/20 11/31/21 38/59/22
f 11/31/21 12/32/23 38/59/22
f 38/59/22 12/32/23 37/58/24
f 12/32/23 13/33/25 37/58/24
f 37/58/24 13/33/25 36/57/26
f 13/33/25 14/34/27 36/57/26
f 36/57/26 14/34/27 35/56/28
f 14/34/27 15/35/29 35/56/28
f 35/56/28 15/35/29 34/55/30
f 15/35/29 16/36/31 34/55/30
f 34/55/30 16/36/31 33/54/32
f 16/36/31 17/37/33 33/54/32
f 33/54/32 17/37/33 32/53/34
f 17/37/33 18/38/35 32/53/34
f 32/53/34 18/38/35 31/52/36
f 18/38/35 19/39/37 31/52/36
f 31/52/36 19/39/37 30/51/38
f 19/39/37 20/40/39 30/51/38
f 30/51/38 20/40/39 29/50/40
f 20/40/39 1/41/1 29/50/40
f 29/50/40 1/41/1 28/48/3
s 2
f 2/2/41 1/1/42 21/42/43
f 3/3/44 2/2/41 21/42/43
f 4/4/45 3/3/44 21/42/43
f 5/5/46 4/4/45 21/42/43
f 6/6/47 5/5/46 21/42/43
f 7/7/48 6/6/47 21/42/43
f 8/8/49 7/7/48 21/42/43
f 9/9/50 8/8/49 21/42/43
f 10/10/51 9/9/50 21/42/43
f 11/11/52 10/10/51 21/42/43
f 12/12/53 11/11/52 21/42/43
f 13/13/54 12/12/53 21/42/43
f 14/14/55 13/13/54 21/42/43
f 15/15/56 14/14/55 21/42/43
f 16/16/57 15/15/56 21/42/43
f 17/17/58 16/16/57 21/42/43
f 18/18/59 17/17/58 21/42/43
f 19/19/60 18/18/59 21/42/43
f 20/20/61 19/19/60 21/42/43
f 1/1/42 20/20/61 21/42/43
s 1
f 22/71/14 60/70/62 23/43/12
f 23/43/12 60/70/62 57/69/63
f 23/43/12 57/69/63 24/44/10
f 24/44/10 57/69/63 54/68/64
f 25/45/8 24/44/10 51/67/65
f 51/67/65 24/44/10 54/68/64
f 26/46/6 25/45/8 48/66/66
f 48/66/66 25/45/8 51/67/65
f 27/47/4 26/46/6 45/64/67
f 45/64/67 26/46/6 48/66/66
f 28/49/3 27/47/4 42/65/68
f 42/65/68 27/47/4 45/64/67
f 29/50/40 28/48/3 99/84/69
f 99/84/69 28/48/3 42/63/68
f 29/50/40 99/84/69 30/51/38
f 30/51/38 99/84/69 96/83/70
f 30/51/38 96/83/70 31/52/36
f 31/52/36 96/83/70 93/82/71
f 31/52/36 93/82/71 32/53/34
f 32/53/34 93/82/71 90/81/72
f 32/53/34 90/81/72 33/54/32
f 33/54/32 90/81/72 87/80/73
f 33/54/32 87/80/73 34/55/30
f 34/55/30 87/80/73 84/79/74
f 35/56/28 34/55/30 81/78/75
f 81/78/75 34/55/30 84/79/74
f 36/57/26 35/56/28 78/77/76
f 78/77/76 35/56/28 81/78/75
f 37/58/24 36/57/26 75/76/77
f 75/76/77 36/57/26 78/77/76
f 38/59/22 37/58/24 72/75/78
f 72/75/78 37/58/24 75/76/77
f 39/60/20 38/59/22 69/74/79
f 69/74/79 38/59/22 72/75/78
f 39/60/20 69/74/79 40/61/18
f 40/61/18 69/74/79 66/73/80
f 40/61/18 66/73/80 41/62/16
f 41/62/16 66/73/80 63/72/81
f 41/62/16 63/72/81 22/71/14
f 22/71/14 63/72/81 60/70/62
f 47/86/82 104/147/83 43/107/84
f 103/106/85 100/145/86 44/108/87
f 50/87/88 105/148/89 46/110/90
f 53/88/91 106/149/92 49/112/93
f 56/89/94 107/150/95 52/114/96
f 59/90/97 108/151/98 55/116/99
f 62/91/100 109/152/101 58/118/102
f 65/92/103 110/153/104 61/120/105
f 68/93/106 111/154/107 64/122/108
f 71/94/109 112/155/110 67/124/111
f 74/95/112 113/156/113 70/126/114
f 77/96/115 114/157/116 73/128/117
f 80/97/118 115/158/119 76/130/120
f 83/98/121 116/159/122 79/132/123
f 86/99/124 117/160/125 82/134/126
f 89/100/127 118/161/128 85/136/129
f 92/101/130 119/162/131 88/138/132
f 95/102/133 120/163/134 91/140/135
f 98/104/136 121/164/137 94/142/138
f 101/105/139 102/146/140 97/144/141
f 43/107/84 42/85/68 47/86/82
f 47/86/82 42/85/68 45/109/67
f 43/107/84 104/147/83 44/108/87
f 44/108/87 104/147/83 103/106/85
f 42/85/68 44/108/87 99/103/69
f 99/103/69 44/108/87 100/145/86
f 46/110/90 45/109/67 50/87/88
f 50/87/88 45/109/67 48/111/66
f 46/110/90 105/148/89 47/86/82
f 47/86/82 105/148/89 104/147/83
f 49/112/93 48/111/66 53/88/91
f 53/88/91 48/111/66 51/113/65
f 49/112/93 106/149/92 50/87/88
f 50/87/88 106/149/92 105/148/89
f 52/114/96 51/113/65 56/89/94
f 56/89/94 51/113/65 54/115/64
f 52/114/96 107/150/95 53/88/91
f 53/88/91 107/150/95 106/149/92
f 54/115/64 57/117/63 55/116/99
f 55/116/99 57/117/63 59/90/97
f 56/89/94 55/116/99 107/150/95
f 107/150/95 55/116/99 108/151/98
f 57/117/63 60/119/62 58/118/102
f 58/118/102 60/119/62 62/91/100
f 59/90/97 58/118/102 108/151/98
f 108/151/98 58/118/102 109/152/101
f 60/119/62 63/121/81 61/120/105
f 61/120/105 63/121/81 65/92/103
f 62/91/100 61/120/105 109/152/101
f 109/152/101 61/120/105 110/153/104
f 63/121/81 66/123/80 64/122/108
f 64/122/108 66/123/80 68/93/106
f 65/92/103 64/122/108 110/153/104
f 110/153/104 64/122/108 111/154/107
f 66/123/80 69/125/79 67/124/111
f 67/124/111 69/125/79 71/94/109
f 68/93/106 67/124/111 111/154/107
f 111/154/107 67/124/111 112/155/110
f 70/126/114 69/125/79 74/95/112
f 74/95/112 69/125/79 72/127/78
f 71/94/109 70/126/114 112/155/110
f 112/155/110 70/126/114 113/156/113
f 73/128/117 72/127/78 77/96/115
f 77/96/115 72/127/78 75/129/77
f 73/128/117 114/157/116 74/95/112
f 74/95/112 114/157/116 113/156/113
f 76/130/120 75/129/77 80/97/118
f 80/97/118 75/129/77 78/131/76
f 76/130/120 115/158/119 77/96/115
f 77/96/115 115/158/119 114/157/116
f 79/132/123 78/131/76 83/98/121
f 83/98/121 78/131/76 81/133/75
f 79/132/123 116/159/122 80/97/118
f 80/97/118 116/159/122 115/158/119
f 82/134/126 81/133/75 86/99/124
f 86/99/124 81/133/75 84/135/74
f 82/134/126 117/160/125 83/98/121
f 83/98/121 117/160/125 116/159/122
f 84/135/74 87/137/73 85/136/129
f 85/136/129 87/137/73 89/100/127
f 86/99/124 85/136/129 117/160/125
f 117/160/125 85/136/129 118/161/128
f 87/137/73 90/139/72 88/138/132
f 88/138/132 90/139/72 92/101/130
f 89/100/127 88/138/132 118/161/128
f 118/161/128 88/138/132 119/162/131
f 90/139/72 93/141/71 91/140/135
f 91/140/135 93/141/71 95/102/133
f 92/101/130 91/140/135 119/162/131
f 119/162/131 91/140/135 120/163/134
f 93/141/71 96/143/70 94/142/138
f 94/142/138 96/143/70 98/104/136
f 95/102/133 94/142/138 120/163/134
f 120/163/134 94/142/138 121/164/137
f 96/143/70 99/103/69 97/144/141
f 97/144/141 99/103/69 101/105/139
f 98/104/136 97/144/141 121/164/137
f 121/164/137 97/144/141 102/146/140
f 101/105/139 100/145/86 102/146/140
f 102/146/140 100/145/86 103/106/85
f 42/85/68 43/107/84 44/108/87
f 45/109/67 46/110/90 47/86/82
f 48/111/66 49/112/93 50/87/88
f 51/113/65 52/114/96 53/88/91
f 54/115/64 55/116/99 56/89/94
f 57/117/63 58/118/102 59/90/97
f 60/119/62 61/120/105 62/91/100
f 63/121/81 64/122/108 65/92/103
f 66/123/80 67/124/111 68/93/106
f 69/125/79 70/126/114 71/94/109
f 72/127/78 73/128/117 74/95/112
f 75/129/77 76/130/120 77/96/115
f 78/131/76 79/132/123 80/97/118
f 81/133/75 82/134/126 83/98/121
f 84/135/74 85/136/129 86/99/124
f 87/137/73 88/138/132 89/100/127
f 90/139/72 91/140/135 92/101/130
f 93/141/71 94/142/138 95/102/133
f 96/143/70 97/144/141 98/104/136
f 99/103/69 100/145/86 101/105/139
f 102/146/140 103/106/85 121/164/137
f 103/106/85 104/147/83 121/164/137
f 104/147/83 105/148/89 121/164/137
f 105/148/89 106/149/92 121/164/137
f 106/149/92 107/150/95 121/164/137
f 107/150/95 108/151/98 121/164/137
f 108/151/98 109/152/101 121/164/137
f 109/152/101 110/153/104 121/164/137
f 110/153/104 111/154/107 121/164/137
f 111/154/107 112/155/110 121/164/137
f 112/155/110 113/156/113 121/164/137
f 113/156/113 114/157/116 121/164/137
f 114/157/116 115/158/119 121/164/137
f 115/158/119 116/159/122 121/164/137
f 121/164/137 116/159/122 120/163/134
f 116/159/122 117/160/125 120/163/134
f 117/160/125 118/161/128 120/163/134
f 118/161/128 119/162/131 120/163/134
