# This file uses centimeters as units for non-parametric coordinates.

mtllib Kirby.mtl
g default
v 0.152225 0.383535 0.685435
v 0.145850 0.401117 0.681662
v 0.135920 0.415070 0.678669
v 0.123408 0.424029 0.676747
v 0.109538 0.427116 0.676084
v 0.095668 0.424029 0.676747
v 0.083156 0.415070 0.678669
v 0.073226 0.401117 0.681662
v 0.066851 0.383535 0.685435
v 0.064654 0.364044 0.689616
v 0.066851 0.344554 0.693798
v 0.073226 0.326971 0.697570
v 0.083156 0.313018 0.700564
v 0.095668 0.304059 0.702486
v 0.109538 0.300972 0.703148
v 0.123408 0.304059 0.702486
v 0.135920 0.313018 0.700564
v 0.145850 0.326971 0.697570
v 0.152225 0.344554 0.693798
v 0.154422 0.364044 0.689616
v 0.152225 0.391780 0.723867
v 0.145850 0.409363 0.720095
v 0.135920 0.423316 0.717101
v 0.123408 0.432275 0.715179
v 0.109538 0.435362 0.714517
v 0.095668 0.432275 0.715179
v 0.083156 0.423316 0.717101
v 0.073226 0.409363 0.720095
v 0.066851 0.391780 0.723867
v 0.064654 0.372290 0.728049
v 0.066851 0.352799 0.732230
v 0.073226 0.335217 0.736002
v 0.083156 0.321263 0.738996
v 0.095668 0.312305 0.740918
v 0.109538 0.309218 0.741580
v 0.123408 0.312305 0.740918
v 0.135920 0.321263 0.738996
v 0.145850 0.335217 0.736002
v 0.152225 0.352799 0.732230
v 0.154422 0.372290 0.728049
v 0.109538 0.364044 0.689616
v 0.109538 0.372290 0.728049
vt 0.375000 0.312500
vt 0.387500 0.312500
vt 0.387500 0.688440
vt 0.375000 0.688440
vt 0.400000 0.312500
vt 0.400000 0.688440
vt 0.412500 0.312500
vt 0.412500 0.688440
vt 0.425000 0.312500
vt 0.425000 0.688440
vt 0.437500 0.312500
vt 0.437500 0.688440
vt 0.450000 0.312500
vt 0.450000 0.688440
vt 0.462500 0.312500
vt 0.462500 0.688440
vt 0.475000 0.312500
vt 0.475000 0.688440
vt 0.487500 0.312500
vt 0.487500 0.688440
vt 0.500000 0.312500
vt 0.500000 0.688440
vt 0.512500 0.312500
vt 0.512500 0.688440
vt 0.525000 0.312500
vt 0.525000 0.688440
vt 0.537500 0.312500
vt 0.537500 0.688440
vt 0.550000 0.312500
vt 0.550000 0.688440
vt 0.562500 0.312500
vt 0.562500 0.688440
vt 0.575000 0.312500
vt 0.575000 0.688440
vt 0.587500 0.312500
vt 0.587500 0.688440
vt 0.600000 0.312500
vt 0.600000 0.688440
vt 0.612500 0.312500
vt 0.612500 0.688440
vt 0.625000 0.312500
vt 0.625000 0.688440
vt 0.626409 0.064408
vt 0.648603 0.107966
vt 0.500000 0.150000
vt 0.591842 0.029841
vt 0.548284 0.007647
vt 0.500000 -0.000000
vt 0.451716 0.007647
vt 0.408159 0.029841
vt 0.373591 0.064409
vt 0.351397 0.107966
vt 0.343750 0.156250
vt 0.351397 0.204534
vt 0.373591 0.248091
vt 0.408159 0.282659
vt 0.451716 0.304853
vt 0.500000 0.312500
vt 0.548284 0.304853
vt 0.591841 0.282659
vt 0.626409 0.248091
vt 0.648603 0.204534
vt 0.656250 0.156250
vt 0.648603 0.892034
vt 0.626409 0.935591
vt 0.500000 0.837500
vt 0.591841 0.970159
vt 0.548284 0.992353
vt 0.500000 1.000000
vt 0.451716 0.992353
vt 0.408159 0.970159
vt 0.373591 0.935591
vt 0.351397 0.892034
vt 0.343750 0.843750
vt 0.351397 0.795466
vt 0.373591 0.751909
vt 0.408159 0.717341
vt 0.451716 0.695147
vt 0.500000 0.687500
vt 0.548284 0.695147
vt 0.591842 0.717341
vt 0.626409 0.751908
vt 0.648603 0.795466
vt 0.656250 0.843750
vn 0.975388 0.215591 -0.046258
vn 0.892447 0.441115 -0.094639
vn 0.975382 0.215614 -0.046258
vn 0.892445 0.441119 -0.094641
vn 0.722220 0.676274 -0.145092
vn 0.722226 0.676267 -0.145095
vn 0.423118 0.885915 -0.190069
vn 0.423117 0.885915 -0.190069
vn -0.000000 0.977752 -0.209766
vn -0.000000 0.977750 -0.209773
vn -0.423108 0.885921 -0.190062
vn -0.423121 0.885912 -0.190074
vn -0.722222 0.676273 -0.145091
vn -0.722224 0.676269 -0.145096
vn -0.892447 0.441113 -0.094642
vn -0.892442 0.441124 -0.094641
vn -0.975383 0.215611 -0.046258
vn -0.975384 0.215608 -0.046257
vn -1.000000 0.000009 -0.000000
vn -1.000000 -0.000002 0.000000
vn -0.975383 -0.215611 0.046257
vn -0.975384 -0.215607 0.046257
vn -0.892441 -0.441126 0.094638
vn -0.892450 -0.441108 0.094639
vn -0.722221 -0.676273 0.145088
vn -0.722227 -0.676266 0.145091
vn -0.423118 -0.885915 0.190069
vn -0.423104 -0.885921 0.190070
vn 0.000000 -0.977750 0.209774
vn -0.000000 -0.977750 0.209772
vn 0.423122 -0.885912 0.190074
vn 0.423102 -0.885922 0.190071
vn 0.722224 -0.676270 0.145091
vn 0.722216 -0.676279 0.145089
vn 0.892445 -0.441119 0.094638
vn 0.892447 -0.441115 0.094638
vn 0.975384 -0.215607 0.046256
vn 0.975385 -0.215602 0.046256
vn 1.000000 -0.000011 -0.000000
vn 1.000000 0.000000 -0.000000
vn -0.000001 -0.209774 -0.977750
vn -0.000001 -0.209772 -0.977750
vn -0.000000 -0.209772 -0.977750
vn 0.000000 -0.209775 -0.977750
vn 0.000000 -0.209771 -0.977751
vn 0.000000 -0.209771 -0.977751
vn 0.000000 -0.209773 -0.977750
vn -0.000001 -0.209772 -0.977750
vn -0.000002 -0.209770 -0.977751
vn 0.000000 -0.209774 -0.977750
vn 0.000000 -0.209773 -0.977750
vn 0.000001 -0.209773 -0.977750
vn 0.000001 -0.209769 -0.977751
vn 0.000000 -0.209771 -0.977750
vn 0.000000 -0.209774 -0.977750
vn 0.000000 -0.209771 -0.977751
vn 0.000000 -0.209771 -0.977750
vn 0.000000 -0.209773 -0.977750
vn -0.000000 -0.209772 -0.977750
vn -0.000001 -0.209772 -0.977750
vn 0.000000 -0.209773 -0.977750
vn -0.000001 0.209771 0.977750
vn -0.000000 0.209772 0.977750
vn 0.000000 0.209772 0.977750
vn 0.000000 0.209773 0.977750
vn -0.000001 0.209771 0.977750
vn 0.000001 0.209771 0.977751
vn 0.000003 0.209771 0.977750
vn 0.000000 0.209768 0.977751
vn 0.000001 0.209771 0.977751
vn 0.000001 0.209773 0.977750
vn 0.000000 0.209772 0.977750
vn 0.000000 0.209775 0.977750
vn 0.000000 0.209772 0.977750
vn 0.000002 0.209769 0.977751
vn -0.000002 0.209775 0.977750
vn -0.000000 0.209774 0.977750
vn 0.000001 0.209772 0.977750
vn -0.000003 0.209775 0.977750
vn 0.000000 0.209775 0.977750
vn 0.000000 0.209775 0.977750
vn 0.000000 0.209771 0.977751
s 1
g polySurface3 pCylinder12
usemtl lambert4SG
f 1/1/1 2/2/2 21/4/3
f 21/4/3 2/2/2 22/3/4
f 2/2/2 3/5/5 22/3/4
f 22/3/4 3/5/5 23/6/6
f 3/5/5 4/7/7 23/6/6
f 23/6/6 4/7/7 24/8/8
f 4/7/7 5/9/9 24/8/8
f 24/8/8 5/9/9 25/10/10
f 5/9/9 6/11/11 25/10/10
f 25/10/10 6/11/11 26/12/12
f 6/11/11 7/13/13 26/12/12
f 26/12/12 7/13/13 27/14/14
f 7/13/13 8/15/15 27/14/14
f 27/14/14 8/15/15 28/16/16
f 8/15/15 9/17/17 28/16/16
f 28/16/16 9/17/17 29/18/18
f 9/17/17 10/19/19 29/18/18
f 29/18/18 10/19/19 30/20/20
f 10/19/19 11/21/21 30/20/20
f 30/20/20 11/21/21 31/22/22
f 11/21/21 12/23/23 31/22/22
f 31/22/22 12/23/23 32/24/24
f 12/23/23 13/25/25 32/24/24
f 32/24/24 13/25/25 33/26/26
f 13/25/25 14/27/27 33/26/26
f 33/26/26 14/27/27 34/28/28
f 14/27/27 15/29/29 34/28/28
f 34/28/28 15/29/29 35/30/30
f 15/29/29 16/31/31 35/30/30
f 35/30/30 16/31/31 36/32/32
f 16/31/31 17/33/33 36/32/32
f 36/32/32 17/33/33 37/34/34
f 17/33/33 18/35/35 37/34/34
f 37/34/34 18/35/35 38/36/36
f 18/35/35 19/37/37 38/36/36
f 38/36/36 19/37/37 39/38/38
f 19/37/37 20/39/39 39/38/38
f 39/38/38 20/39/39 40/40/40
f 20/39/39 1/41/1 40/40/40
f 40/40/40 1/41/1 21/42/3
s 2
f 2/43/41 1/44/42 41/45/43
f 3/46/44 2/43/41 41/45/43
f 4/47/45 3/46/44 41/45/43
f 5/48/46 4/47/45 41/45/43
f 6/49/47 5/48/46 41/45/43
f 7/50/48 6/49/47 41/45/43
f 8/51/49 7/50/48 41/45/43
f 9/52/50 8/51/49 41/45/43
f 10/53/51 9/52/50 41/45/43
f 11/54/52 10/53/51 41/45/43
f 12/55/53 11/54/52 41/45/43
f 13/56/54 12/55/53 41/45/43
f 14/57/55 13/56/54 41/45/43
f 15/58/56 14/57/55 41/45/43
f 16/59/57 15/58/56 41/45/43
f 17/60/58 16/59/57 41/45/43
f 18/61/59 17/60/58 41/45/43
f 19/62/60 18/61/59 41/45/43
f 20/63/61 19/62/60 41/45/43
f 1/44/42 20/63/61 41/45/43
s 3
f 21/64/62 22/65/63 42/66/64
f 22/65/63 23/67/65 42/66/64
f 23/67/65 24/68/66 42/66/64
f 24/68/66 25/69/67 42/66/64
f 25/69/67 26/70/68 42/66/64
f 26/70/68 27/71/69 42/66/64
f 27/71/69 28/72/70 42/66/64
f 28/72/70 29/73/71 42/66/64
f 29/73/71 30/74/72 42/66/64
f 30/74/72 31/75/73 42/66/64
f 31/75/73 32/76/74 42/66/64
f 32/76/74 33/77/75 42/66/64
f 33/77/75 34/78/76 42/66/64
f 34/78/76 35/79/77 42/66/64
f 35/79/77 36/80/78 42/66/64
f 36/80/78 37/81/79 42/66/64
f 37/81/79 38/82/80 42/66/64
f 38/82/80 39/83/81 42/66/64
f 39/83/81 40/84/82 42/66/64
f 40/84/82 21/64/62 42/66/64
