# This file uses centimeters as units for non-parametric coordinates.

mtllib Circle_8x8.mtl
g default
v 0.238599 -0.923880 -0.299194
v -0.085155 -0.923880 -0.373089
v -0.344786 -0.923880 -0.166040
v -0.344786 -0.923880 0.166040
v -0.085155 -0.923880 0.373089
v 0.238599 -0.923880 0.299194
v 0.382683 -0.923880 0.000000
v 0.440874 -0.707107 -0.552838
v -0.157346 -0.707107 -0.689378
v -0.637081 -0.707107 -0.306802
v -0.637081 -0.707107 0.306802
v -0.157346 -0.707107 0.689378
v 0.440874 -0.707107 0.552838
v 0.707107 -0.707107 0.000000
v 0.576029 -0.382683 -0.722318
v -0.205582 -0.382683 -0.900716
v -0.832387 -0.382683 -0.400856
v -0.832387 -0.382683 0.400856
v -0.205583 -0.382683 0.900716
v 0.576029 -0.382683 0.722318
v 0.923880 -0.382683 0.000000
v 0.623490 0.000000 -0.781831
v -0.222521 0.000000 -0.974928
v -0.900969 0.000000 -0.433884
v -0.900969 0.000000 0.433884
v -0.222521 0.000000 0.974928
v 0.623490 0.000000 0.781832
v 1.000000 0.000000 0.000000
v 0.576029 0.382683 -0.722318
v -0.205582 0.382683 -0.900716
v -0.832387 0.382683 -0.400856
v -0.832387 0.382683 0.400856
v -0.205583 0.382683 0.900716
v 0.576029 0.382683 0.722318
v 0.923880 0.382683 0.000000
v 0.440874 0.707107 -0.552838
v -0.157346 0.707107 -0.689378
v -0.637081 0.707107 -0.306802
v -0.637081 0.707107 0.306802
v -0.157346 0.707107 0.689378
v 0.440874 0.707107 0.552838
v 0.707107 0.707107 0.000000
v 0.238599 0.923880 -0.299194
v -0.085155 0.923880 -0.373089
v -0.344786 0.923880 -0.166040
v -0.344786 0.923880 0.166040
v -0.085155 0.923880 0.373089
v 0.238599 0.923880 0.299194
v 0.382683 0.923880 0.000000
v 0.000000 -1.000000 0.000000
v 0.000000 1.000000 0.000000
vt 0.000000 0.125000
vt 0.142857 0.125000
vt 0.142857 0.250000
vt 0.000000 0.250000
vt 0.285714 0.125000
vt 0.285714 0.250000
vt 0.428571 0.125000
vt 0.428571 0.250000
vt 0.571429 0.125000
vt 0.571429 0.250000
vt 0.714286 0.125000
vt 0.714286 0.250000
vt 0.857143 0.125000
vt 0.857143 0.250000
vt 1.000000 0.125000
vt 1.000000 0.250000
vt 0.142857 0.375000
vt 0.000000 0.375000
vt 0.285714 0.375000
vt 0.428571 0.375000
vt 0.571429 0.375000
vt 0.714286 0.375000
vt 0.857143 0.375000
vt 1.000000 0.375000
vt 0.142857 0.500000
vt 0.000000 0.500000
vt 0.285714 0.500000
vt 0.428571 0.500000
vt 0.571429 0.500000
vt 0.714286 0.500000
vt 0.857143 0.500000
vt 1.000000 0.500000
vt 0.142857 0.625000
vt 0.000000 0.625000
vt 0.285714 0.625000
vt 0.428571 0.625000
vt 0.571429 0.625000
vt 0.714286 0.625000
vt 0.857143 0.625000
vt 1.000000 0.625000
vt 0.142857 0.750000
vt 0.000000 0.750000
vt 0.285714 0.750000
vt 0.428571 0.750000
vt 0.571429 0.750000
vt 0.714286 0.750000
vt 0.857143 0.750000
vt 1.000000 0.750000
vt 0.142857 0.875000
vt 0.000000 0.875000
vt 0.285714 0.875000
vt 0.428571 0.875000
vt 0.571429 0.875000
vt 0.714286 0.875000
vt 0.857143 0.875000
vt 1.000000 0.875000
vt 0.071429 0.000000
vt 0.214286 0.000000
vt 0.357143 0.000000
vt 0.500000 0.000000
vt 0.642857 0.000000
vt 0.785714 0.000000
vt 0.928571 0.000000
vt 0.071429 1.000000
vt 0.214286 1.000000
vt 0.357143 1.000000
vt 0.500000 1.000000
vt 0.642857 1.000000
vt 0.785714 1.000000
vt 0.928571 1.000000
vn 0.132552 -0.803218 -0.580750
vn 0.132552 -0.803218 -0.580750
vn 0.132552 -0.803218 -0.580750
vn 0.132552 -0.803218 -0.580750
vn -0.371403 -0.803218 -0.465725
vn -0.371403 -0.803218 -0.465725
vn -0.371403 -0.803218 -0.465725
vn -0.371403 -0.803218 -0.465725
vn -0.595685 -0.803218 0.000000
vn -0.595685 -0.803218 0.000000
vn -0.595685 -0.803218 0.000000
vn -0.595685 -0.803218 0.000000
vn -0.371403 -0.803218 0.465725
vn -0.371403 -0.803218 0.465725
vn -0.371403 -0.803218 0.465725
vn -0.371403 -0.803218 0.465725
vn 0.132552 -0.803219 0.580750
vn 0.132552 -0.803219 0.580750
vn 0.132552 -0.803219 0.580750
vn 0.132552 -0.803218 0.580750
vn 0.536693 -0.803218 0.258458
vn 0.536693 -0.803218 0.258458
vn 0.536693 -0.803218 0.258458
vn 0.536693 -0.803218 0.258458
vn 0.536693 -0.803218 -0.258458
vn 0.536693 -0.803218 -0.258458
vn 0.536693 -0.803218 -0.258458
vn 0.536693 -0.803218 -0.258458
vn 0.190641 -0.515760 -0.835253
vn 0.190641 -0.515760 -0.835253
vn 0.190641 -0.515760 -0.835253
vn 0.190641 -0.515760 -0.835253
vn -0.534164 -0.515760 -0.669821
vn -0.534164 -0.515760 -0.669821
vn -0.534164 -0.515760 -0.669821
vn -0.534164 -0.515760 -0.669821
vn -0.856733 -0.515760 0.000000
vn -0.856733 -0.515760 0.000000
vn -0.856733 -0.515760 0.000000
vn -0.856733 -0.515760 0.000000
vn -0.534164 -0.515760 0.669821
vn -0.534164 -0.515760 0.669821
vn -0.534164 -0.515760 0.669821
vn -0.534164 -0.515760 0.669821
vn 0.190641 -0.515760 0.835253
vn 0.190641 -0.515760 0.835253
vn 0.190641 -0.515760 0.835253
vn 0.190641 -0.515760 0.835253
vn 0.771890 -0.515760 0.371722
vn 0.771890 -0.515760 0.371722
vn 0.771890 -0.515760 0.371722
vn 0.771890 -0.515760 0.371722
vn 0.771890 -0.515760 -0.371723
vn 0.771890 -0.515760 -0.371723
vn 0.771890 -0.515760 -0.371723
vn 0.771890 -0.515760 -0.371723
vn 0.219031 -0.176403 -0.959639
vn 0.219031 -0.176403 -0.959639
vn 0.219031 -0.176403 -0.959639
vn 0.219031 -0.176403 -0.959639
vn -0.613712 -0.176403 -0.769571
vn -0.613712 -0.176403 -0.769571
vn -0.613712 -0.176403 -0.769571
vn -0.613712 -0.176403 -0.769571
vn -0.984318 -0.176403 0.000000
vn -0.984318 -0.176403 0.000000
vn -0.984318 -0.176403 0.000000
vn -0.984318 -0.176403 0.000000
vn -0.613712 -0.176404 0.769571
vn -0.613712 -0.176404 0.769571
vn -0.613712 -0.176404 0.769571
vn -0.613712 -0.176404 0.769571
vn 0.219031 -0.176404 0.959639
vn 0.219031 -0.176403 0.959639
vn 0.219031 -0.176403 0.959639
vn 0.219031 -0.176403 0.959639
vn 0.886840 -0.176404 0.427080
vn 0.886840 -0.176404 0.427080
vn 0.886840 -0.176404 0.427080
vn 0.886840 -0.176404 0.427080
vn 0.886840 -0.176404 -0.427079
vn 0.886840 -0.176404 -0.427079
vn 0.886840 -0.176404 -0.427080
vn 0.886840 -0.176404 -0.427080
vn 0.219031 0.176403 -0.959639
vn 0.219031 0.176403 -0.959639
vn 0.219031 0.176403 -0.959639
vn 0.219031 0.176403 -0.959639
vn -0.613712 0.176403 -0.769571
vn -0.613712 0.176403 -0.769571
vn -0.613712 0.176403 -0.769571
vn -0.613712 0.176403 -0.769571
vn -0.984318 0.176403 -0.000000
vn -0.984318 0.176403 -0.000000
vn -0.984318 0.176403 -0.000000
vn -0.984318 0.176403 -0.000000
vn -0.613712 0.176404 0.769571
vn -0.613712 0.176404 0.769571
vn -0.613712 0.176404 0.769571
vn -0.613712 0.176404 0.769571
vn 0.219031 0.176403 0.959639
vn 0.219031 0.176403 0.959639
vn 0.219031 0.176403 0.959639
vn 0.219031 0.176404 0.959639
vn 0.886840 0.176404 0.427080
vn 0.886840 0.176404 0.427080
vn 0.886840 0.176404 0.427080
vn 0.886840 0.176404 0.427080
vn 0.886840 0.176404 -0.427079
vn 0.886840 0.176404 -0.427079
vn 0.886840 0.176404 -0.427080
vn 0.886840 0.176404 -0.427080
vn 0.190641 0.515760 -0.835253
vn 0.190641 0.515760 -0.835253
vn 0.190641 0.515760 -0.835253
vn 0.190641 0.515760 -0.835253
vn -0.534164 0.515760 -0.669821
vn -0.534164 0.515760 -0.669821
vn -0.534164 0.515760 -0.669821
vn -0.534164 0.515760 -0.669821
vn -0.856733 0.515760 -0.000000
vn -0.856733 0.515760 -0.000000
vn -0.856733 0.515760 -0.000000
vn -0.856733 0.515760 -0.000000
vn -0.534164 0.515760 0.669821
vn -0.534164 0.515760 0.669821
vn -0.534164 0.515760 0.669821
vn -0.534164 0.515760 0.669821
vn 0.190641 0.515760 0.835253
vn 0.190641 0.515760 0.835253
vn 0.190641 0.515760 0.835253
vn 0.190641 0.515760 0.835253
vn 0.771890 0.515760 0.371723
vn 0.771890 0.515760 0.371723
vn 0.771890 0.515760 0.371723
vn 0.771890 0.515760 0.371723
vn 0.771890 0.515760 -0.371723
vn 0.771890 0.515760 -0.371723
vn 0.771890 0.515760 -0.371723
vn 0.771890 0.515760 -0.371723
vn 0.132552 0.803218 -0.580750
vn 0.132552 0.803218 -0.580750
vn 0.132552 0.803218 -0.580750
vn 0.132552 0.803218 -0.580750
vn -0.371403 0.803218 -0.465725
vn -0.371403 0.803218 -0.465725
vn -0.371403 0.803218 -0.465725
vn -0.371403 0.803218 -0.465725
vn -0.595685 0.803218 -0.000000
vn -0.595685 0.803218 -0.000000
vn -0.595685 0.803218 -0.000000
vn -0.595685 0.803218 -0.000000
vn -0.371403 0.803218 0.465725
vn -0.371403 0.803218 0.465725
vn -0.371403 0.803218 0.465725
vn -0.371403 0.803218 0.465725
vn 0.132552 0.803218 0.580750
vn 0.132552 0.803219 0.580750
vn 0.132552 0.803219 0.580750
vn 0.132552 0.803219 0.580750
vn 0.536693 0.803218 0.258458
vn 0.536693 0.803218 0.258458
vn 0.536693 0.803218 0.258458
vn 0.536693 0.803218 0.258458
vn 0.536693 0.803218 -0.258458
vn 0.536693 0.803219 -0.258458
vn 0.536693 0.803219 -0.258458
vn 0.536693 0.803219 -0.258458
vn 0.047972 -0.976485 -0.210180
vn 0.047972 -0.976485 -0.210180
vn 0.047972 -0.976485 -0.210180
vn -0.134415 -0.976485 -0.168551
vn -0.134415 -0.976485 -0.168551
vn -0.134415 -0.976485 -0.168551
vn -0.215585 -0.976485 0.000000
vn -0.215585 -0.976485 0.000000
vn -0.215585 -0.976485 0.000000
vn -0.134415 -0.976485 0.168551
vn -0.134415 -0.976485 0.168551
vn -0.134415 -0.976485 0.168551
vn 0.047972 -0.976485 0.210180
vn 0.047972 -0.976485 0.210180
vn 0.047972 -0.976485 0.210180
vn 0.194235 -0.976485 0.093539
vn 0.194235 -0.976485 0.093539
vn 0.194235 -0.976485 0.093539
vn 0.194235 -0.976485 -0.093539
vn 0.194235 -0.976485 -0.093539
vn 0.194235 -0.976485 -0.093539
vn 0.047972 0.976485 -0.210180
vn 0.047972 0.976485 -0.210180
vn 0.047972 0.976485 -0.210180
vn -0.134415 0.976485 -0.168551
vn -0.134415 0.976485 -0.168551
vn -0.134415 0.976485 -0.168551
vn -0.215585 0.976485 0.000000
vn -0.215585 0.976485 0.000000
vn -0.215585 0.976485 0.000000
vn -0.134415 0.976485 0.168550
vn -0.134415 0.976485 0.168550
vn -0.134415 0.976485 0.168550
vn 0.047972 0.976485 0.210180
vn 0.047972 0.976485 0.210180
vn 0.047972 0.976485 0.210180
vn 0.194235 0.976485 0.093539
vn 0.194235 0.976485 0.093539
vn 0.194235 0.976485 0.093539
vn 0.194235 0.976485 -0.093539
vn 0.194235 0.976485 -0.093539
vn 0.194235 0.976485 -0.093539
s off
g Circle_8x9:pSphere1
usemtl initialShadingGroup
f 1/1/1 2/2/2 9/3/3 8/4/4
f 2/2/5 3/5/6 10/6/7 9/3/8
f 3/5/9 4/7/10 11/8/11 10/6/12
f 4/7/13 5/9/14 12/10/15 11/8/16
f 5/9/17 6/11/18 13/12/19 12/10/20
f 6/11/21 7/13/22 14/14/23 13/12/24
f 7/13/25 1/15/26 8/16/27 14/14/28
f 8/4/29 9/3/30 16/17/31 15/18/32
f 9/3/33 10/6/34 17/19/35 16/17/36
f 10/6/37 11/8/38 18/20/39 17/19/40
f 11/8/41 12/10/42 19/21/43 18/20/44
f 12/10/45 13/12/46 20/22/47 19/21/48
f 13/12/49 14/14/50 21/23/51 20/22/52
f 14/14/53 8/16/54 15/24/55 21/23/56
f 15/18/57 16/17/58 23/25/59 22/26/60
f 16/17/61 17/19/62 24/27/63 23/25/64
f 17/19/65 18/20/66 25/28/67 24/27/68
f 18/20/69 19/21/70 26/29/71 25/28/72
f 19/21/73 20/22/74 27/30/75 26/29/76
f 20/22/77 21/23/78 28/31/79 27/30/80
f 21/23/81 15/24/82 22/32/83 28/31/84
f 22/26/85 23/25/86 30/33/87 29/34/88
f 23/25/89 24/27/90 31/35/91 30/33/92
f 24/27/93 25/28/94 32/36/95 31/35/96
f 25/28/97 26/29/98 33/37/99 32/36/100
f 26/29/101 27/30/102 34/38/103 33/37/104
f 27/30/105 28/31/106 35/39/107 34/38/108
f 28/31/109 22/32/110 29/40/111 35/39/112
f 29/34/113 30/33/114 37/41/115 36/42/116
f 30/33/117 31/35/118 38/43/119 37/41/120
f 31/35/121 32/36/122 39/44/123 38/43/124
f 32/36/125 33/37/126 40/45/127 39/44/128
f 33/37/129 34/38/130 41/46/131 40/45/132
f 34/38/133 35/39/134 42/47/135 41/46/136
f 35/39/137 29/40/138 36/48/139 42/47/140
f 36/42/141 37/41/142 44/49/143 43/50/144
f 37/41/145 38/43/146 45/51/147 44/49/148
f 38/43/149 39/44/150 46/52/151 45/51/152
f 39/44/153 40/45/154 47/53/155 46/52/156
f 40/45/157 41/46/158 48/54/159 47/53/160
f 41/46/161 42/47/162 49/55/163 48/54/164
f 42/47/165 36/48/166 43/56/167 49/55/168
f 2/2/169 1/1/170 50/57/171
f 3/5/172 2/2/173 50/58/174
f 4/7/175 3/5/176 50/59/177
f 5/9/178 4/7/179 50/60/180
f 6/11/181 5/9/182 50/61/183
f 7/13/184 6/11/185 50/62/186
f 1/15/187 7/13/188 50/63/189
f 43/50/190 44/49/191 51/64/192
f 44/49/193 45/51/194 51/65/195
f 45/51/196 46/52/197 51/66/198
f 46/52/199 47/53/200 51/67/201
f 47/53/202 48/54/203 51/68/204
f 48/54/205 49/55/206 51/69/207
f 49/55/208 43/56/209 51/70/210
